<svg width="90" height="82" viewBox="0 0 90 82" fill="none" xmlns="http://www.w3.org/2000/svg">
<ellipse cx="45" cy="32" rx="45" ry="32" fill="#D9D9D9"/>
<path d="M45.2515 44.21C43.7115 44.21 42.3315 43.96 41.1115 43.46C39.8915 42.96 38.9115 42.22 38.1715 41.24C37.4515 40.26 37.0715 39.08 37.0315 37.7H42.4915C42.5715 38.48 42.8415 39.08 43.3015 39.5C43.7615 39.9 44.3615 40.1 45.1015 40.1C45.8615 40.1 46.4615 39.93 46.9015 39.59C47.3415 39.23 47.5615 38.74 47.5615 38.12C47.5615 37.6 47.3815 37.17 47.0215 36.83C46.6815 36.49 46.2515 36.21 45.7315 35.99C45.2315 35.77 44.5115 35.52 43.5715 35.24C42.2115 34.82 41.1015 34.4 40.2415 33.98C39.3815 33.56 38.6415 32.94 38.0215 32.12C37.4015 31.3 37.0915 30.23 37.0915 28.91C37.0915 26.95 37.8015 25.42 39.2215 24.32C40.6415 23.2 42.4915 22.64 44.7715 22.64C47.0915 22.64 48.9615 23.2 50.3815 24.32C51.8015 25.42 52.5615 26.96 52.6615 28.94H47.1115C47.0715 28.26 46.8215 27.73 46.3615 27.35C45.9015 26.95 45.3115 26.75 44.5915 26.75C43.9715 26.75 43.4715 26.92 43.0915 27.26C42.7115 27.58 42.5215 28.05 42.5215 28.67C42.5215 29.35 42.8415 29.88 43.4815 30.26C44.1215 30.64 45.1215 31.05 46.4815 31.49C47.8415 31.95 48.9415 32.39 49.7815 32.81C50.6415 33.23 51.3815 33.84 52.0015 34.64C52.6215 35.44 52.9315 36.47 52.9315 37.73C52.9315 38.93 52.6215 40.02 52.0015 41C51.4015 41.98 50.5215 42.76 49.3615 43.34C48.2015 43.92 46.8315 44.21 45.2515 44.21Z" fill="black"/>
</svg>
