<svg width="616" height="349" viewBox="0 0 616 349" fill="none" xmlns="http://www.w3.org/2000/svg">
<g filter="url(#filter0_d_120_42)">
<rect x="4" y="244" width="608" height="100" rx="15" fill="white"/>
</g>
<g filter="url(#filter1_d_120_42)">
<rect x="4" y="3" width="608" height="100" rx="15" fill="white"/>
</g>
<path d="M120.046 41.574C120.718 41.694 121.288 42.048 121.756 42.636C122.224 43.224 122.458 43.89 122.458 44.634C122.458 45.27 122.29 45.846 121.954 46.362C121.63 46.866 121.156 47.268 120.532 47.568C119.908 47.856 119.182 48 118.354 48H113.35V35.49H118.12C118.972 35.49 119.704 35.634 120.316 35.922C120.928 36.21 121.39 36.6 121.702 37.092C122.014 37.572 122.17 38.112 122.17 38.712C122.17 39.432 121.978 40.032 121.594 40.512C121.21 40.992 120.694 41.346 120.046 41.574ZM115.402 40.746H117.94C118.612 40.746 119.134 40.596 119.506 40.296C119.89 39.984 120.082 39.54 120.082 38.964C120.082 38.4 119.89 37.962 119.506 37.65C119.134 37.326 118.612 37.164 117.94 37.164H115.402V40.746ZM118.174 46.326C118.87 46.326 119.416 46.158 119.812 45.822C120.208 45.486 120.406 45.018 120.406 44.418C120.406 43.806 120.196 43.32 119.776 42.96C119.356 42.6 118.798 42.42 118.102 42.42H115.402V46.326H118.174ZM124.004 42.996C124.004 42 124.208 41.118 124.616 40.35C125.036 39.582 125.6 38.988 126.308 38.568C127.028 38.136 127.82 37.92 128.684 37.92C129.464 37.92 130.142 38.076 130.718 38.388C131.306 38.688 131.774 39.066 132.122 39.522V38.082H134.192V48H132.122V46.524C131.774 46.992 131.3 47.382 130.7 47.694C130.1 48.006 129.416 48.162 128.648 48.162C127.796 48.162 127.016 47.946 126.308 47.514C125.6 47.07 125.036 46.458 124.616 45.678C124.208 44.886 124.004 43.992 124.004 42.996ZM132.122 43.032C132.122 42.348 131.978 41.754 131.69 41.25C131.414 40.746 131.048 40.362 130.592 40.098C130.136 39.834 129.644 39.702 129.116 39.702C128.588 39.702 128.096 39.834 127.64 40.098C127.184 40.35 126.812 40.728 126.524 41.232C126.248 41.724 126.11 42.312 126.11 42.996C126.11 43.68 126.248 44.28 126.524 44.796C126.812 45.312 127.184 45.708 127.64 45.984C128.108 46.248 128.6 46.38 129.116 46.38C129.644 46.38 130.136 46.248 130.592 45.984C131.048 45.72 131.414 45.336 131.69 44.832C131.978 44.316 132.122 43.716 132.122 43.032ZM138.939 39.558C139.287 39.078 139.761 38.688 140.361 38.388C140.973 38.076 141.651 37.92 142.395 37.92C143.271 37.92 144.063 38.13 144.771 38.55C145.479 38.97 146.037 39.57 146.445 40.35C146.853 41.118 147.057 42 147.057 42.996C147.057 43.992 146.853 44.886 146.445 45.678C146.037 46.458 145.473 47.07 144.753 47.514C144.045 47.946 143.259 48.162 142.395 48.162C141.627 48.162 140.943 48.012 140.343 47.712C139.755 47.412 139.287 47.028 138.939 46.56V48H136.887V34.68H138.939V39.558ZM144.969 42.996C144.969 42.312 144.825 41.724 144.537 41.232C144.261 40.728 143.889 40.35 143.421 40.098C142.965 39.834 142.473 39.702 141.945 39.702C141.429 39.702 140.937 39.834 140.469 40.098C140.013 40.362 139.641 40.746 139.353 41.25C139.077 41.754 138.939 42.348 138.939 43.032C138.939 43.716 139.077 44.316 139.353 44.832C139.641 45.336 140.013 45.72 140.469 45.984C140.937 46.248 141.429 46.38 141.945 46.38C142.473 46.38 142.965 46.248 143.421 45.984C143.889 45.708 144.261 45.312 144.537 44.796C144.825 44.28 144.969 43.68 144.969 42.996ZM158.014 38.082L151.93 52.662H149.806L151.822 47.838L147.916 38.082H150.202L152.992 45.642L155.89 38.082H158.014ZM170.935 41.574C171.607 41.694 172.177 42.048 172.645 42.636C173.113 43.224 173.347 43.89 173.347 44.634C173.347 45.27 173.179 45.846 172.843 46.362C172.519 46.866 172.045 47.268 171.421 47.568C170.797 47.856 170.071 48 169.243 48H164.239V35.49H169.009C169.861 35.49 170.593 35.634 171.205 35.922C171.817 36.21 172.279 36.6 172.591 37.092C172.903 37.572 173.059 38.112 173.059 38.712C173.059 39.432 172.867 40.032 172.483 40.512C172.099 40.992 171.583 41.346 170.935 41.574ZM166.291 40.746H168.829C169.501 40.746 170.023 40.596 170.395 40.296C170.779 39.984 170.971 39.54 170.971 38.964C170.971 38.4 170.779 37.962 170.395 37.65C170.023 37.326 169.501 37.164 168.829 37.164H166.291V40.746ZM169.063 46.326C169.759 46.326 170.305 46.158 170.701 45.822C171.097 45.486 171.295 45.018 171.295 44.418C171.295 43.806 171.085 43.32 170.665 42.96C170.245 42.6 169.687 42.42 168.991 42.42H166.291V46.326H169.063ZM177.629 34.68V48H175.577V34.68H177.629ZM189.305 38.082V48H187.253V46.83C186.929 47.238 186.503 47.562 185.975 47.802C185.459 48.03 184.907 48.144 184.319 48.144C183.539 48.144 182.837 47.982 182.213 47.658C181.601 47.334 181.115 46.854 180.755 46.218C180.407 45.582 180.233 44.814 180.233 43.914V38.082H182.267V43.608C182.267 44.496 182.489 45.18 182.933 45.66C183.377 46.128 183.983 46.362 184.751 46.362C185.519 46.362 186.125 46.128 186.569 45.66C187.025 45.18 187.253 44.496 187.253 43.608V38.082H189.305ZM201.102 42.798C201.102 43.17 201.078 43.506 201.03 43.806H193.452C193.512 44.598 193.806 45.234 194.334 45.714C194.862 46.194 195.51 46.434 196.278 46.434C197.382 46.434 198.162 45.972 198.618 45.048H200.832C200.532 45.96 199.986 46.71 199.194 47.298C198.414 47.874 197.442 48.162 196.278 48.162C195.33 48.162 194.478 47.952 193.722 47.532C192.978 47.1 192.39 46.5 191.958 45.732C191.538 44.952 191.328 44.052 191.328 43.032C191.328 42.012 191.532 41.118 191.94 40.35C192.36 39.57 192.942 38.97 193.686 38.55C194.442 38.13 195.306 37.92 196.278 37.92C197.214 37.92 198.048 38.124 198.78 38.532C199.512 38.94 200.082 39.516 200.49 40.26C200.898 40.992 201.102 41.838 201.102 42.798ZM198.96 42.15C198.948 41.394 198.678 40.788 198.15 40.332C197.622 39.876 196.968 39.648 196.188 39.648C195.48 39.648 194.874 39.876 194.37 40.332C193.866 40.776 193.566 41.382 193.47 42.15H198.96ZM215.159 35.49V37.164H209.849V40.854H213.989V42.528H209.849V48H207.797V35.49H215.159ZM226.043 38.082V48H223.991V46.83C223.667 47.238 223.241 47.562 222.713 47.802C222.197 48.03 221.645 48.144 221.057 48.144C220.277 48.144 219.575 47.982 218.951 47.658C218.339 47.334 217.853 46.854 217.493 46.218C217.145 45.582 216.971 44.814 216.971 43.914V38.082H219.005V43.608C219.005 44.496 219.227 45.18 219.671 45.66C220.115 46.128 220.721 46.362 221.489 46.362C222.257 46.362 222.863 46.128 223.307 45.66C223.763 45.18 223.991 44.496 223.991 43.608V38.082H226.043ZM230.802 34.68V48H228.75V34.68H230.802ZM235.548 34.68V48H233.496V34.68H235.548ZM248.624 48.126C247.46 48.126 246.386 47.856 245.402 47.316C244.43 46.764 243.656 46.002 243.08 45.03C242.516 44.046 242.234 42.942 242.234 41.718C242.234 40.494 242.516 39.396 243.08 38.424C243.656 37.452 244.43 36.696 245.402 36.156C246.386 35.604 247.46 35.328 248.624 35.328C249.8 35.328 250.874 35.604 251.846 36.156C252.83 36.696 253.604 37.452 254.168 38.424C254.732 39.396 255.014 40.494 255.014 41.718C255.014 42.942 254.732 44.046 254.168 45.03C253.604 46.002 252.83 46.764 251.846 47.316C250.874 47.856 249.8 48.126 248.624 48.126ZM248.624 46.344C249.452 46.344 250.19 46.158 250.838 45.786C251.486 45.402 251.99 44.862 252.35 44.166C252.722 43.458 252.908 42.642 252.908 41.718C252.908 40.794 252.722 39.984 252.35 39.288C251.99 38.592 251.486 38.058 250.838 37.686C250.19 37.314 249.452 37.128 248.624 37.128C247.796 37.128 247.058 37.314 246.41 37.686C245.762 38.058 245.252 38.592 244.88 39.288C244.52 39.984 244.34 40.794 244.34 41.718C244.34 42.642 244.52 43.458 244.88 44.166C245.252 44.862 245.762 45.402 246.41 45.786C247.058 46.158 247.796 46.344 248.624 46.344ZM266.016 38.082V48H263.964V46.83C263.64 47.238 263.214 47.562 262.686 47.802C262.17 48.03 261.618 48.144 261.03 48.144C260.25 48.144 259.548 47.982 258.924 47.658C258.312 47.334 257.826 46.854 257.466 46.218C257.118 45.582 256.944 44.814 256.944 43.914V38.082H258.978V43.608C258.978 44.496 259.2 45.18 259.644 45.66C260.088 46.128 260.694 46.362 261.462 46.362C262.23 46.362 262.836 46.128 263.28 45.66C263.736 45.18 263.964 44.496 263.964 43.608V38.082H266.016ZM271.117 39.756V45.246C271.117 45.618 271.201 45.888 271.369 46.056C271.549 46.212 271.849 46.29 272.269 46.29H273.529V48H271.909C270.985 48 270.277 47.784 269.785 47.352C269.293 46.92 269.047 46.218 269.047 45.246V39.756H267.877V38.082H269.047V35.616H271.117V38.082H273.529V39.756H271.117ZM279.578 39.756H277.742V48H275.672V39.756H274.502V38.082H275.672V37.38C275.672 36.24 275.972 35.412 276.572 34.896C277.184 34.368 278.138 34.104 279.434 34.104V35.814C278.81 35.814 278.372 35.934 278.12 36.174C277.868 36.402 277.742 36.804 277.742 37.38V38.082H279.578V39.756ZM282.441 36.768C282.069 36.768 281.757 36.642 281.505 36.39C281.253 36.138 281.127 35.826 281.127 35.454C281.127 35.082 281.253 34.77 281.505 34.518C281.757 34.266 282.069 34.14 282.441 34.14C282.801 34.14 283.107 34.266 283.359 34.518C283.611 34.77 283.737 35.082 283.737 35.454C283.737 35.826 283.611 36.138 283.359 36.39C283.107 36.642 282.801 36.768 282.441 36.768ZM283.449 38.082V48H281.397V38.082H283.449ZM288.537 39.756V45.246C288.537 45.618 288.621 45.888 288.789 46.056C288.969 46.212 289.269 46.29 289.689 46.29H290.949V48H289.329C288.405 48 287.697 47.784 287.205 47.352C286.713 46.92 286.467 46.218 286.467 45.246V39.756H285.297V38.082H286.467V35.616H288.537V38.082H290.949V39.756H288.537Z" fill="#1E1E1E"/>
<g filter="url(#filter2_d_120_42)">
<rect x="4" y="127" width="608" height="100" rx="15" fill="white"/>
</g>
<path d="M120.046 165.574C120.718 165.694 121.288 166.048 121.756 166.636C122.224 167.224 122.458 167.89 122.458 168.634C122.458 169.27 122.29 169.846 121.954 170.362C121.63 170.866 121.156 171.268 120.532 171.568C119.908 171.856 119.182 172 118.354 172H113.35V159.49H118.12C118.972 159.49 119.704 159.634 120.316 159.922C120.928 160.21 121.39 160.6 121.702 161.092C122.014 161.572 122.17 162.112 122.17 162.712C122.17 163.432 121.978 164.032 121.594 164.512C121.21 164.992 120.694 165.346 120.046 165.574ZM115.402 164.746H117.94C118.612 164.746 119.134 164.596 119.506 164.296C119.89 163.984 120.082 163.54 120.082 162.964C120.082 162.4 119.89 161.962 119.506 161.65C119.134 161.326 118.612 161.164 117.94 161.164H115.402V164.746ZM118.174 170.326C118.87 170.326 119.416 170.158 119.812 169.822C120.208 169.486 120.406 169.018 120.406 168.418C120.406 167.806 120.196 167.32 119.776 166.96C119.356 166.6 118.798 166.42 118.102 166.42H115.402V170.326H118.174ZM124.004 166.996C124.004 166 124.208 165.118 124.616 164.35C125.036 163.582 125.6 162.988 126.308 162.568C127.028 162.136 127.82 161.92 128.684 161.92C129.464 161.92 130.142 162.076 130.718 162.388C131.306 162.688 131.774 163.066 132.122 163.522V162.082H134.192V172H132.122V170.524C131.774 170.992 131.3 171.382 130.7 171.694C130.1 172.006 129.416 172.162 128.648 172.162C127.796 172.162 127.016 171.946 126.308 171.514C125.6 171.07 125.036 170.458 124.616 169.678C124.208 168.886 124.004 167.992 124.004 166.996ZM132.122 167.032C132.122 166.348 131.978 165.754 131.69 165.25C131.414 164.746 131.048 164.362 130.592 164.098C130.136 163.834 129.644 163.702 129.116 163.702C128.588 163.702 128.096 163.834 127.64 164.098C127.184 164.35 126.812 164.728 126.524 165.232C126.248 165.724 126.11 166.312 126.11 166.996C126.11 167.68 126.248 168.28 126.524 168.796C126.812 169.312 127.184 169.708 127.64 169.984C128.108 170.248 128.6 170.38 129.116 170.38C129.644 170.38 130.136 170.248 130.592 169.984C131.048 169.72 131.414 169.336 131.69 168.832C131.978 168.316 132.122 167.716 132.122 167.032ZM140.487 172.162C139.707 172.162 139.005 172.024 138.381 171.748C137.769 171.46 137.283 171.076 136.923 170.596C136.563 170.104 136.371 169.558 136.347 168.958H138.471C138.507 169.378 138.705 169.732 139.065 170.02C139.437 170.296 139.899 170.434 140.451 170.434C141.027 170.434 141.471 170.326 141.783 170.11C142.107 169.882 142.269 169.594 142.269 169.246C142.269 168.874 142.089 168.598 141.729 168.418C141.381 168.238 140.823 168.04 140.055 167.824C139.311 167.62 138.705 167.422 138.237 167.23C137.769 167.038 137.361 166.744 137.013 166.348C136.677 165.952 136.509 165.43 136.509 164.782C136.509 164.254 136.665 163.774 136.977 163.342C137.289 162.898 137.733 162.55 138.309 162.298C138.897 162.046 139.569 161.92 140.325 161.92C141.453 161.92 142.359 162.208 143.043 162.784C143.739 163.348 144.111 164.122 144.159 165.106H142.107C142.071 164.662 141.891 164.308 141.567 164.044C141.243 163.78 140.805 163.648 140.253 163.648C139.713 163.648 139.299 163.75 139.011 163.954C138.723 164.158 138.579 164.428 138.579 164.764C138.579 165.028 138.675 165.25 138.867 165.43C139.059 165.61 139.293 165.754 139.569 165.862C139.845 165.958 140.253 166.084 140.793 166.24C141.513 166.432 142.101 166.63 142.557 166.834C143.025 167.026 143.427 167.314 143.763 167.698C144.099 168.082 144.273 168.592 144.285 169.228C144.285 169.792 144.129 170.296 143.817 170.74C143.505 171.184 143.061 171.532 142.485 171.784C141.921 172.036 141.255 172.162 140.487 172.162ZM147.546 160.768C147.174 160.768 146.862 160.642 146.61 160.39C146.358 160.138 146.232 159.826 146.232 159.454C146.232 159.082 146.358 158.77 146.61 158.518C146.862 158.266 147.174 158.14 147.546 158.14C147.906 158.14 148.212 158.266 148.464 158.518C148.716 158.77 148.842 159.082 148.842 159.454C148.842 159.826 148.716 160.138 148.464 160.39C148.212 160.642 147.906 160.768 147.546 160.768ZM148.554 162.082V172H146.502V162.082H148.554ZM150.564 167.032C150.564 166.012 150.768 165.118 151.176 164.35C151.596 163.57 152.172 162.97 152.904 162.55C153.636 162.13 154.476 161.92 155.424 161.92C156.624 161.92 157.614 162.208 158.394 162.784C159.186 163.348 159.72 164.158 159.996 165.214H157.782C157.602 164.722 157.314 164.338 156.918 164.062C156.522 163.786 156.024 163.648 155.424 163.648C154.584 163.648 153.912 163.948 153.408 164.548C152.916 165.136 152.67 165.964 152.67 167.032C152.67 168.1 152.916 168.934 153.408 169.534C153.912 170.134 154.584 170.434 155.424 170.434C156.612 170.434 157.398 169.912 157.782 168.868H159.996C159.708 169.876 159.168 170.68 158.376 171.28C157.584 171.868 156.6 172.162 155.424 172.162C154.476 172.162 153.636 171.952 152.904 171.532C152.172 171.1 151.596 170.5 151.176 169.732C150.768 168.952 150.564 168.052 150.564 167.032ZM183.007 159.49L179.299 172H176.977L174.349 162.532L171.559 172L169.255 172.018L165.709 159.49H167.887L170.479 169.678L173.287 159.49H175.591L178.201 169.624L180.811 159.49H183.007ZM189.83 161.92C190.586 161.92 191.258 162.082 191.846 162.406C192.446 162.73 192.914 163.21 193.25 163.846C193.598 164.482 193.772 165.25 193.772 166.15V172H191.738V166.456C191.738 165.568 191.516 164.89 191.072 164.422C190.628 163.942 190.022 163.702 189.254 163.702C188.486 163.702 187.874 163.942 187.418 164.422C186.974 164.89 186.752 165.568 186.752 166.456V172H184.7V158.68H186.752V163.234C187.1 162.814 187.538 162.49 188.066 162.262C188.606 162.034 189.194 161.92 189.83 161.92ZM197.433 160.768C197.061 160.768 196.749 160.642 196.497 160.39C196.245 160.138 196.119 159.826 196.119 159.454C196.119 159.082 196.245 158.77 196.497 158.518C196.749 158.266 197.061 158.14 197.433 158.14C197.793 158.14 198.099 158.266 198.351 158.518C198.603 158.77 198.729 159.082 198.729 159.454C198.729 159.826 198.603 160.138 198.351 160.39C198.099 160.642 197.793 160.768 197.433 160.768ZM198.441 162.082V172H196.389V162.082H198.441ZM203.529 163.756V169.246C203.529 169.618 203.613 169.888 203.781 170.056C203.961 170.212 204.261 170.29 204.681 170.29H205.941V172H204.321C203.397 172 202.689 171.784 202.197 171.352C201.705 170.92 201.459 170.218 201.459 169.246V163.756H200.289V162.082H201.459V159.616H203.529V162.082H205.941V163.756H203.529ZM216.922 166.798C216.922 167.17 216.898 167.506 216.85 167.806H209.272C209.332 168.598 209.626 169.234 210.154 169.714C210.682 170.194 211.33 170.434 212.098 170.434C213.202 170.434 213.982 169.972 214.438 169.048H216.652C216.352 169.96 215.806 170.71 215.014 171.298C214.234 171.874 213.262 172.162 212.098 172.162C211.15 172.162 210.298 171.952 209.542 171.532C208.798 171.1 208.21 170.5 207.778 169.732C207.358 168.952 207.148 168.052 207.148 167.032C207.148 166.012 207.352 165.118 207.76 164.35C208.18 163.57 208.762 162.97 209.506 162.55C210.262 162.13 211.126 161.92 212.098 161.92C213.034 161.92 213.868 162.124 214.6 162.532C215.332 162.94 215.902 163.516 216.31 164.26C216.718 164.992 216.922 165.838 216.922 166.798ZM214.78 166.15C214.768 165.394 214.498 164.788 213.97 164.332C213.442 163.876 212.788 163.648 212.008 163.648C211.3 163.648 210.694 163.876 210.19 164.332C209.686 164.776 209.386 165.382 209.29 166.15H214.78ZM233.608 159.49V172H231.556V166.528H225.67V172H223.618V159.49H225.67V164.854H231.556V159.49H233.608ZM240.611 172.162C239.675 172.162 238.829 171.952 238.073 171.532C237.317 171.1 236.723 170.5 236.291 169.732C235.859 168.952 235.643 168.052 235.643 167.032C235.643 166.024 235.865 165.13 236.309 164.35C236.753 163.57 237.359 162.97 238.127 162.55C238.895 162.13 239.753 161.92 240.701 161.92C241.649 161.92 242.507 162.13 243.275 162.55C244.043 162.97 244.649 163.57 245.093 164.35C245.537 165.13 245.759 166.024 245.759 167.032C245.759 168.04 245.531 168.934 245.075 169.714C244.619 170.494 243.995 171.1 243.203 171.532C242.423 171.952 241.559 172.162 240.611 172.162ZM240.611 170.38C241.139 170.38 241.631 170.254 242.087 170.002C242.555 169.75 242.933 169.372 243.221 168.868C243.509 168.364 243.653 167.752 243.653 167.032C243.653 166.312 243.515 165.706 243.239 165.214C242.963 164.71 242.597 164.332 242.141 164.08C241.685 163.828 241.193 163.702 240.665 163.702C240.137 163.702 239.645 163.828 239.189 164.08C238.745 164.332 238.391 164.71 238.127 165.214C237.863 165.706 237.731 166.312 237.731 167.032C237.731 168.1 238.001 168.928 238.541 169.516C239.093 170.092 239.783 170.38 240.611 170.38ZM252.09 172.162C251.154 172.162 250.308 171.952 249.552 171.532C248.796 171.1 248.202 170.5 247.77 169.732C247.338 168.952 247.122 168.052 247.122 167.032C247.122 166.024 247.344 165.13 247.788 164.35C248.232 163.57 248.838 162.97 249.606 162.55C250.374 162.13 251.232 161.92 252.18 161.92C253.128 161.92 253.986 162.13 254.754 162.55C255.522 162.97 256.128 163.57 256.572 164.35C257.016 165.13 257.238 166.024 257.238 167.032C257.238 168.04 257.01 168.934 256.554 169.714C256.098 170.494 255.474 171.1 254.682 171.532C253.902 171.952 253.038 172.162 252.09 172.162ZM252.09 170.38C252.618 170.38 253.11 170.254 253.566 170.002C254.034 169.75 254.412 169.372 254.7 168.868C254.988 168.364 255.132 167.752 255.132 167.032C255.132 166.312 254.994 165.706 254.718 165.214C254.442 164.71 254.076 164.332 253.62 164.08C253.164 163.828 252.672 163.702 252.144 163.702C251.616 163.702 251.124 163.828 250.668 164.08C250.224 164.332 249.87 164.71 249.606 165.214C249.342 165.706 249.21 166.312 249.21 167.032C249.21 168.1 249.48 168.928 250.02 169.516C250.572 170.092 251.262 170.38 252.09 170.38ZM258.582 166.996C258.582 166 258.786 165.118 259.194 164.35C259.614 163.582 260.178 162.988 260.886 162.568C261.606 162.136 262.404 161.92 263.28 161.92C263.928 161.92 264.564 162.064 265.188 162.352C265.824 162.628 266.328 163 266.7 163.468V158.68H268.77V172H266.7V170.506C266.364 170.986 265.896 171.382 265.296 171.694C264.708 172.006 264.03 172.162 263.262 172.162C262.398 172.162 261.606 171.946 260.886 171.514C260.178 171.07 259.614 170.458 259.194 169.678C258.786 168.886 258.582 167.992 258.582 166.996ZM266.7 167.032C266.7 166.348 266.556 165.754 266.268 165.25C265.992 164.746 265.626 164.362 265.17 164.098C264.714 163.834 264.222 163.702 263.694 163.702C263.166 163.702 262.674 163.834 262.218 164.098C261.762 164.35 261.39 164.728 261.102 165.232C260.826 165.724 260.688 166.312 260.688 166.996C260.688 167.68 260.826 168.28 261.102 168.796C261.39 169.312 261.762 169.708 262.218 169.984C262.686 170.248 263.178 170.38 263.694 170.38C264.222 170.38 264.714 170.248 265.17 169.984C265.626 169.72 265.992 169.336 266.268 168.832C266.556 168.316 266.7 167.716 266.7 167.032ZM272.509 160.768C272.137 160.768 271.825 160.642 271.573 160.39C271.321 160.138 271.195 159.826 271.195 159.454C271.195 159.082 271.321 158.77 271.573 158.518C271.825 158.266 272.137 158.14 272.509 158.14C272.869 158.14 273.175 158.266 273.427 158.518C273.679 158.77 273.805 159.082 273.805 159.454C273.805 159.826 273.679 160.138 273.427 160.39C273.175 160.642 272.869 160.768 272.509 160.768ZM273.517 162.082V172H271.465V162.082H273.517ZM285.301 166.798C285.301 167.17 285.277 167.506 285.229 167.806H277.651C277.711 168.598 278.005 169.234 278.533 169.714C279.061 170.194 279.709 170.434 280.477 170.434C281.581 170.434 282.361 169.972 282.817 169.048H285.031C284.731 169.96 284.185 170.71 283.393 171.298C282.613 171.874 281.641 172.162 280.477 172.162C279.529 172.162 278.677 171.952 277.921 171.532C277.177 171.1 276.589 170.5 276.157 169.732C275.737 168.952 275.527 168.052 275.527 167.032C275.527 166.012 275.731 165.118 276.139 164.35C276.559 163.57 277.141 162.97 277.885 162.55C278.641 162.13 279.505 161.92 280.477 161.92C281.413 161.92 282.247 162.124 282.979 162.532C283.711 162.94 284.281 163.516 284.689 164.26C285.097 164.992 285.301 165.838 285.301 166.798ZM283.159 166.15C283.147 165.394 282.877 164.788 282.349 164.332C281.821 163.876 281.167 163.648 280.387 163.648C279.679 163.648 279.073 163.876 278.569 164.332C278.065 164.776 277.765 165.382 277.669 166.15H283.159Z" fill="#1E1E1E"/>
<path d="M126.526 283.49V296H124.474V287.432L120.658 296H119.236L115.402 287.432V296H113.35V283.49H115.564L119.956 293.3L124.33 283.49H126.526ZM130.267 284.768C129.895 284.768 129.583 284.642 129.331 284.39C129.079 284.138 128.953 283.826 128.953 283.454C128.953 283.082 129.079 282.77 129.331 282.518C129.583 282.266 129.895 282.14 130.267 282.14C130.627 282.14 130.933 282.266 131.185 282.518C131.437 282.77 131.563 283.082 131.563 283.454C131.563 283.826 131.437 284.138 131.185 284.39C130.933 284.642 130.627 284.768 130.267 284.768ZM131.275 286.082V296H129.223V286.082H131.275ZM138.217 290.978L141.421 296H139.099L136.957 292.634L134.941 296H132.799L136.003 291.122L132.799 286.082H135.121L137.263 289.448L139.279 286.082H141.421L138.217 290.978ZM152.042 290.798C152.042 291.17 152.018 291.506 151.97 291.806H144.392C144.452 292.598 144.746 293.234 145.274 293.714C145.802 294.194 146.45 294.434 147.218 294.434C148.322 294.434 149.102 293.972 149.558 293.048H151.772C151.472 293.96 150.926 294.71 150.134 295.298C149.354 295.874 148.382 296.162 147.218 296.162C146.27 296.162 145.418 295.952 144.662 295.532C143.918 295.1 143.33 294.5 142.898 293.732C142.478 292.952 142.268 292.052 142.268 291.032C142.268 290.012 142.472 289.118 142.88 288.35C143.3 287.57 143.882 286.97 144.626 286.55C145.382 286.13 146.246 285.92 147.218 285.92C148.154 285.92 148.988 286.124 149.72 286.532C150.452 286.94 151.022 287.516 151.43 288.26C151.838 288.992 152.042 289.838 152.042 290.798ZM149.9 290.15C149.888 289.394 149.618 288.788 149.09 288.332C148.562 287.876 147.908 287.648 147.128 287.648C146.42 287.648 145.814 287.876 145.31 288.332C144.806 288.776 144.506 289.382 144.41 290.15H149.9ZM153.377 290.996C153.377 290 153.581 289.118 153.989 288.35C154.409 287.582 154.973 286.988 155.681 286.568C156.401 286.136 157.199 285.92 158.075 285.92C158.723 285.92 159.359 286.064 159.983 286.352C160.619 286.628 161.123 287 161.495 287.468V282.68H163.565V296H161.495V294.506C161.159 294.986 160.691 295.382 160.091 295.694C159.503 296.006 158.825 296.162 158.057 296.162C157.193 296.162 156.401 295.946 155.681 295.514C154.973 295.07 154.409 294.458 153.989 293.678C153.581 292.886 153.377 291.992 153.377 290.996ZM161.495 291.032C161.495 290.348 161.351 289.754 161.063 289.25C160.787 288.746 160.421 288.362 159.965 288.098C159.509 287.834 159.017 287.702 158.489 287.702C157.961 287.702 157.469 287.834 157.013 288.098C156.557 288.35 156.185 288.728 155.897 289.232C155.621 289.724 155.483 290.312 155.483 290.996C155.483 291.68 155.621 292.28 155.897 292.796C156.185 293.312 156.557 293.708 157.013 293.984C157.481 294.248 157.973 294.38 158.489 294.38C159.017 294.38 159.509 294.248 159.965 293.984C160.421 293.72 160.787 293.336 161.063 292.832C161.351 292.316 161.495 291.716 161.495 291.032ZM170.252 289.718C170.252 288.494 170.534 287.396 171.098 286.424C171.674 285.452 172.448 284.696 173.42 284.156C174.404 283.604 175.478 283.328 176.642 283.328C177.974 283.328 179.156 283.658 180.188 284.318C181.232 284.966 181.988 285.89 182.456 287.09H179.99C179.666 286.43 179.216 285.938 178.64 285.614C178.064 285.29 177.398 285.128 176.642 285.128C175.814 285.128 175.076 285.314 174.428 285.686C173.78 286.058 173.27 286.592 172.898 287.288C172.538 287.984 172.358 288.794 172.358 289.718C172.358 290.642 172.538 291.452 172.898 292.148C173.27 292.844 173.78 293.384 174.428 293.768C175.076 294.14 175.814 294.326 176.642 294.326C177.398 294.326 178.064 294.164 178.64 293.84C179.216 293.516 179.666 293.024 179.99 292.364H182.456C181.988 293.564 181.232 294.488 180.188 295.136C179.156 295.784 177.974 296.108 176.642 296.108C175.466 296.108 174.392 295.838 173.42 295.298C172.448 294.746 171.674 293.984 171.098 293.012C170.534 292.04 170.252 290.942 170.252 289.718ZM189.16 296.162C188.224 296.162 187.378 295.952 186.622 295.532C185.866 295.1 185.272 294.5 184.84 293.732C184.408 292.952 184.192 292.052 184.192 291.032C184.192 290.024 184.414 289.13 184.858 288.35C185.302 287.57 185.908 286.97 186.676 286.55C187.444 286.13 188.302 285.92 189.25 285.92C190.198 285.92 191.056 286.13 191.824 286.55C192.592 286.97 193.198 287.57 193.642 288.35C194.086 289.13 194.308 290.024 194.308 291.032C194.308 292.04 194.08 292.934 193.624 293.714C193.168 294.494 192.544 295.1 191.752 295.532C190.972 295.952 190.108 296.162 189.16 296.162ZM189.16 294.38C189.688 294.38 190.18 294.254 190.636 294.002C191.104 293.75 191.482 293.372 191.77 292.868C192.058 292.364 192.202 291.752 192.202 291.032C192.202 290.312 192.064 289.706 191.788 289.214C191.512 288.71 191.146 288.332 190.69 288.08C190.234 287.828 189.742 287.702 189.214 287.702C188.686 287.702 188.194 287.828 187.738 288.08C187.294 288.332 186.94 288.71 186.676 289.214C186.412 289.706 186.28 290.312 186.28 291.032C186.28 292.1 186.55 292.928 187.09 293.516C187.642 294.092 188.332 294.38 189.16 294.38ZM198.388 282.68V296H196.336V282.68H198.388ZM205.384 296.162C204.448 296.162 203.602 295.952 202.846 295.532C202.09 295.1 201.496 294.5 201.064 293.732C200.632 292.952 200.416 292.052 200.416 291.032C200.416 290.024 200.638 289.13 201.082 288.35C201.526 287.57 202.132 286.97 202.9 286.55C203.668 286.13 204.526 285.92 205.474 285.92C206.422 285.92 207.28 286.13 208.048 286.55C208.816 286.97 209.422 287.57 209.866 288.35C210.31 289.13 210.532 290.024 210.532 291.032C210.532 292.04 210.304 292.934 209.848 293.714C209.392 294.494 208.768 295.1 207.976 295.532C207.196 295.952 206.332 296.162 205.384 296.162ZM205.384 294.38C205.912 294.38 206.404 294.254 206.86 294.002C207.328 293.75 207.706 293.372 207.994 292.868C208.282 292.364 208.426 291.752 208.426 291.032C208.426 290.312 208.288 289.706 208.012 289.214C207.736 288.71 207.37 288.332 206.914 288.08C206.458 287.828 205.966 287.702 205.438 287.702C204.91 287.702 204.418 287.828 203.962 288.08C203.518 288.332 203.164 288.71 202.9 289.214C202.636 289.706 202.504 290.312 202.504 291.032C202.504 292.1 202.774 292.928 203.314 293.516C203.866 294.092 204.556 294.38 205.384 294.38ZM221.543 286.082V296H219.491V294.83C219.167 295.238 218.741 295.562 218.213 295.802C217.697 296.03 217.145 296.144 216.557 296.144C215.777 296.144 215.075 295.982 214.451 295.658C213.839 295.334 213.353 294.854 212.993 294.218C212.645 293.582 212.471 292.814 212.471 291.914V286.082H214.505V291.608C214.505 292.496 214.727 293.18 215.171 293.66C215.615 294.128 216.221 294.362 216.989 294.362C217.757 294.362 218.363 294.128 218.807 293.66C219.263 293.18 219.491 292.496 219.491 291.608V286.082H221.543ZM226.302 287.522C226.602 287.018 226.998 286.628 227.49 286.352C227.994 286.064 228.588 285.92 229.272 285.92V288.044H228.75C227.946 288.044 227.334 288.248 226.914 288.656C226.506 289.064 226.302 289.772 226.302 290.78V296H224.25V286.082H226.302V287.522ZM234.759 296.162C233.979 296.162 233.277 296.024 232.653 295.748C232.041 295.46 231.555 295.076 231.195 294.596C230.835 294.104 230.643 293.558 230.619 292.958H232.743C232.779 293.378 232.977 293.732 233.337 294.02C233.709 294.296 234.171 294.434 234.723 294.434C235.299 294.434 235.743 294.326 236.055 294.11C236.379 293.882 236.541 293.594 236.541 293.246C236.541 292.874 236.361 292.598 236.001 292.418C235.653 292.238 235.095 292.04 234.327 291.824C233.583 291.62 232.977 291.422 232.509 291.23C232.041 291.038 231.633 290.744 231.285 290.348C230.949 289.952 230.781 289.43 230.781 288.782C230.781 288.254 230.937 287.774 231.249 287.342C231.561 286.898 232.005 286.55 232.581 286.298C233.169 286.046 233.841 285.92 234.597 285.92C235.725 285.92 236.631 286.208 237.315 286.784C238.011 287.348 238.383 288.122 238.431 289.106H236.379C236.343 288.662 236.163 288.308 235.839 288.044C235.515 287.78 235.077 287.648 234.525 287.648C233.985 287.648 233.571 287.75 233.283 287.954C232.995 288.158 232.851 288.428 232.851 288.764C232.851 289.028 232.947 289.25 233.139 289.43C233.331 289.61 233.565 289.754 233.841 289.862C234.117 289.958 234.525 290.084 235.065 290.24C235.785 290.432 236.373 290.63 236.829 290.834C237.297 291.026 237.699 291.314 238.035 291.698C238.371 292.082 238.545 292.592 238.557 293.228C238.557 293.792 238.401 294.296 238.089 294.74C237.777 295.184 237.333 295.532 236.757 295.784C236.193 296.036 235.527 296.162 234.759 296.162ZM247.502 287.54C247.85 287.084 248.324 286.7 248.924 286.388C249.524 286.076 250.202 285.92 250.958 285.92C251.822 285.92 252.608 286.136 253.316 286.568C254.036 286.988 254.6 287.582 255.008 288.35C255.416 289.118 255.62 290 255.62 290.996C255.62 291.992 255.416 292.886 255.008 293.678C254.6 294.458 254.036 295.07 253.316 295.514C252.608 295.946 251.822 296.162 250.958 296.162C250.202 296.162 249.53 296.012 248.942 295.712C248.354 295.4 247.874 295.016 247.502 294.56V300.716H245.45V286.082H247.502V287.54ZM253.532 290.996C253.532 290.312 253.388 289.724 253.1 289.232C252.824 288.728 252.452 288.35 251.984 288.098C251.528 287.834 251.036 287.702 250.508 287.702C249.992 287.702 249.5 287.834 249.032 288.098C248.576 288.362 248.204 288.746 247.916 289.25C247.64 289.754 247.502 290.348 247.502 291.032C247.502 291.716 247.64 292.316 247.916 292.832C248.204 293.336 248.576 293.72 249.032 293.984C249.5 294.248 249.992 294.38 250.508 294.38C251.036 294.38 251.528 294.248 251.984 293.984C252.452 293.708 252.824 293.312 253.1 292.796C253.388 292.28 253.532 291.68 253.532 290.996ZM256.965 290.996C256.965 290 257.169 289.118 257.577 288.35C257.997 287.582 258.561 286.988 259.269 286.568C259.989 286.136 260.781 285.92 261.645 285.92C262.425 285.92 263.103 286.076 263.679 286.388C264.267 286.688 264.735 287.066 265.083 287.522V286.082H267.153V296H265.083V294.524C264.735 294.992 264.261 295.382 263.661 295.694C263.061 296.006 262.377 296.162 261.609 296.162C260.757 296.162 259.977 295.946 259.269 295.514C258.561 295.07 257.997 294.458 257.577 293.678C257.169 292.886 256.965 291.992 256.965 290.996ZM265.083 291.032C265.083 290.348 264.939 289.754 264.651 289.25C264.375 288.746 264.009 288.362 263.553 288.098C263.097 287.834 262.605 287.702 262.077 287.702C261.549 287.702 261.057 287.834 260.601 288.098C260.145 288.35 259.773 288.728 259.485 289.232C259.209 289.724 259.071 290.312 259.071 290.996C259.071 291.68 259.209 292.28 259.485 292.796C259.773 293.312 260.145 293.708 260.601 293.984C261.069 294.248 261.561 294.38 262.077 294.38C262.605 294.38 263.097 294.248 263.553 293.984C264.009 293.72 264.375 293.336 264.651 292.832C264.939 292.316 265.083 291.716 265.083 291.032ZM274.852 285.92C275.632 285.92 276.328 286.082 276.94 286.406C277.564 286.73 278.05 287.21 278.398 287.846C278.746 288.482 278.92 289.25 278.92 290.15V296H276.886V290.456C276.886 289.568 276.664 288.89 276.22 288.422C275.776 287.942 275.17 287.702 274.402 287.702C273.634 287.702 273.022 287.942 272.566 288.422C272.122 288.89 271.9 289.568 271.9 290.456V296H269.848V286.082H271.9V287.216C272.236 286.808 272.662 286.49 273.178 286.262C273.706 286.034 274.264 285.92 274.852 285.92ZM283.932 287.756V293.246C283.932 293.618 284.016 293.888 284.184 294.056C284.364 294.212 284.664 294.29 285.084 294.29H286.344V296H284.724C283.8 296 283.092 295.784 282.6 295.352C282.108 294.92 281.862 294.218 281.862 293.246V287.756H280.692V286.082H281.862V283.616H283.932V286.082H286.344V287.756H283.932ZM291.835 296.162C291.055 296.162 290.353 296.024 289.729 295.748C289.117 295.46 288.631 295.076 288.271 294.596C287.911 294.104 287.719 293.558 287.695 292.958H289.819C289.855 293.378 290.053 293.732 290.413 294.02C290.785 294.296 291.247 294.434 291.799 294.434C292.375 294.434 292.819 294.326 293.131 294.11C293.455 293.882 293.617 293.594 293.617 293.246C293.617 292.874 293.437 292.598 293.077 292.418C292.729 292.238 292.171 292.04 291.403 291.824C290.659 291.62 290.053 291.422 289.585 291.23C289.117 291.038 288.709 290.744 288.361 290.348C288.025 289.952 287.857 289.43 287.857 288.782C287.857 288.254 288.013 287.774 288.325 287.342C288.637 286.898 289.081 286.55 289.657 286.298C290.245 286.046 290.917 285.92 291.673 285.92C292.801 285.92 293.707 286.208 294.391 286.784C295.087 287.348 295.459 288.122 295.507 289.106H293.455C293.419 288.662 293.239 288.308 292.915 288.044C292.591 287.78 292.153 287.648 291.601 287.648C291.061 287.648 290.647 287.75 290.359 287.954C290.071 288.158 289.927 288.428 289.927 288.764C289.927 289.028 290.023 289.25 290.215 289.43C290.407 289.61 290.641 289.754 290.917 289.862C291.193 289.958 291.601 290.084 292.141 290.24C292.861 290.432 293.449 290.63 293.905 290.834C294.373 291.026 294.775 291.314 295.111 291.698C295.447 292.082 295.621 292.592 295.633 293.228C295.633 293.792 295.477 294.296 295.165 294.74C294.853 295.184 294.409 295.532 293.833 295.784C293.269 296.036 292.603 296.162 291.835 296.162Z" fill="#1E1E1E"/>
<defs>
<filter id="filter0_d_120_42" x="0" y="241" width="616" height="108" filterUnits="userSpaceOnUse" color-interpolation-filters="sRGB">
<feFlood flood-opacity="0" result="BackgroundImageFix"/>
<feColorMatrix in="SourceAlpha" type="matrix" values="0 0 0 0 0 0 0 0 0 0 0 0 0 0 0 0 0 0 127 0" result="hardAlpha"/>
<feOffset dy="1"/>
<feGaussianBlur stdDeviation="2"/>
<feComposite in2="hardAlpha" operator="out"/>
<feColorMatrix type="matrix" values="0 0 0 0 0 0 0 0 0 0 0 0 0 0 0 0 0 0 0.25 0"/>
<feBlend mode="normal" in2="BackgroundImageFix" result="effect1_dropShadow_120_42"/>
<feBlend mode="normal" in="SourceGraphic" in2="effect1_dropShadow_120_42" result="shape"/>
</filter>
<filter id="filter1_d_120_42" x="0" y="0" width="616" height="108" filterUnits="userSpaceOnUse" color-interpolation-filters="sRGB">
<feFlood flood-opacity="0" result="BackgroundImageFix"/>
<feColorMatrix in="SourceAlpha" type="matrix" values="0 0 0 0 0 0 0 0 0 0 0 0 0 0 0 0 0 0 127 0" result="hardAlpha"/>
<feOffset dy="1"/>
<feGaussianBlur stdDeviation="2"/>
<feComposite in2="hardAlpha" operator="out"/>
<feColorMatrix type="matrix" values="0 0 0 0 0 0 0 0 0 0 0 0 0 0 0 0 0 0 0.25 0"/>
<feBlend mode="normal" in2="BackgroundImageFix" result="effect1_dropShadow_120_42"/>
<feBlend mode="normal" in="SourceGraphic" in2="effect1_dropShadow_120_42" result="shape"/>
</filter>
<filter id="filter2_d_120_42" x="0" y="124" width="616" height="108" filterUnits="userSpaceOnUse" color-interpolation-filters="sRGB">
<feFlood flood-opacity="0" result="BackgroundImageFix"/>
<feColorMatrix in="SourceAlpha" type="matrix" values="0 0 0 0 0 0 0 0 0 0 0 0 0 0 0 0 0 0 127 0" result="hardAlpha"/>
<feOffset dy="1"/>
<feGaussianBlur stdDeviation="2"/>
<feComposite in2="hardAlpha" operator="out"/>
<feColorMatrix type="matrix" values="0 0 0 0 0 0 0 0 0 0 0 0 0 0 0 0 0 0 0.25 0"/>
<feBlend mode="normal" in2="BackgroundImageFix" result="effect1_dropShadow_120_42"/>
<feBlend mode="normal" in="SourceGraphic" in2="effect1_dropShadow_120_42" result="shape"/>
</filter>
</defs>
</svg>
