<svg width="114" height="58" viewBox="0 0 114 58" fill="none" xmlns="http://www.w3.org/2000/svg">
<rect width="114" height="58" fill="#FEFCFC"/>
<path d="M33.496 37H28.168L22.528 28.456V37H17.2V20.008H22.528L28.168 28.696V20.008H33.496V37ZM36.6231 30.232C36.6231 28.808 36.8631 27.576 37.3431 26.536C37.8391 25.48 38.5111 24.68 39.3591 24.136C40.2071 23.576 41.1591 23.296 42.2151 23.296C43.0951 23.296 43.8551 23.48 44.4951 23.848C45.1351 24.2 45.6231 24.688 45.9591 25.312V23.464H51.2631V37H45.9591V35.152C45.6231 35.776 45.1351 36.272 44.4951 36.64C43.8551 36.992 43.0951 37.168 42.2151 37.168C41.1591 37.168 40.2071 36.896 39.3591 36.352C38.5111 35.792 37.8391 34.992 37.3431 33.952C36.8631 32.896 36.6231 31.656 36.6231 30.232ZM45.9591 30.232C45.9591 29.512 45.7751 28.952 45.4071 28.552C45.0391 28.152 44.5671 27.952 43.9911 27.952C43.4151 27.952 42.9431 28.152 42.5751 28.552C42.2071 28.952 42.0231 29.512 42.0231 30.232C42.0231 30.952 42.2071 31.512 42.5751 31.912C42.9431 32.312 43.4151 32.512 43.9911 32.512C44.5671 32.512 45.0391 32.312 45.4071 31.912C45.7751 31.512 45.9591 30.952 45.9591 30.232ZM73.1676 23.368C74.8956 23.368 76.2316 23.888 77.1756 24.928C78.1356 25.968 78.6156 27.376 78.6156 29.152V37H73.3116V29.824C73.3116 29.248 73.1356 28.8 72.7836 28.48C72.4476 28.144 71.9916 27.976 71.4156 27.976C70.8236 27.976 70.3596 28.144 70.0236 28.48C69.6876 28.8 69.5196 29.248 69.5196 29.824V37H64.2156V29.824C64.2156 29.248 64.0396 28.8 63.6876 28.48C63.3516 28.144 62.8956 27.976 62.3196 27.976C61.7276 27.976 61.2636 28.144 60.9276 28.48C60.5916 28.8 60.4236 29.248 60.4236 29.824V37H55.0956V23.464H60.4236V25.288C60.8076 24.712 61.3276 24.248 61.9836 23.896C62.6556 23.544 63.4396 23.368 64.3356 23.368C65.3116 23.368 66.1756 23.584 66.9276 24.016C67.6796 24.432 68.2796 25.024 68.7276 25.792C69.2236 25.088 69.8556 24.512 70.6236 24.064C71.3916 23.6 72.2396 23.368 73.1676 23.368ZM95.4678 30.112C95.4678 30.48 95.4438 30.832 95.3958 31.168H86.8278C86.9078 32.336 87.3958 32.92 88.2918 32.92C88.8677 32.92 89.2837 32.656 89.5397 32.128H95.1798C94.9878 33.088 94.5798 33.952 93.9558 34.72C93.3478 35.472 92.5718 36.072 91.6278 36.52C90.6998 36.952 89.6758 37.168 88.5558 37.168C87.2118 37.168 86.0117 36.888 84.9557 36.328C83.9157 35.768 83.0997 34.968 82.5077 33.928C81.9317 32.872 81.6437 31.64 81.6437 30.232C81.6437 28.824 81.9317 27.6 82.5077 26.56C83.0997 25.504 83.9157 24.696 84.9557 24.136C86.0117 23.576 87.2118 23.296 88.5558 23.296C89.8998 23.296 91.0918 23.576 92.1318 24.136C93.1877 24.68 94.0037 25.464 94.5798 26.488C95.1718 27.512 95.4678 28.72 95.4678 30.112ZM90.0678 28.84C90.0678 28.392 89.9238 28.056 89.6358 27.832C89.3477 27.592 88.9878 27.472 88.5558 27.472C87.6118 27.472 87.0597 27.928 86.8997 28.84H90.0678Z" fill="black"/>
</svg>
